<svg width="24" height="28" viewBox="0 0 24 28" fill="none" xmlns="http://www.w3.org/2000/svg">
<path d="M21.1886 0H2.81143C1.26171 0 0 1.288 0 2.884V21.812C0 23.408 1.26171 24.696 2.81143 24.696H18.3634L17.6366 22.106L19.392 23.772L21.0514 25.34L24 28V2.884C24 1.288 22.7383 0 21.1886 0ZM15.8949 18.284C15.8949 18.284 15.4011 17.682 14.9897 17.15C16.7863 16.632 17.472 15.484 17.472 15.484C16.9097 15.862 16.3749 16.128 15.8949 16.31C15.2091 16.604 14.5509 16.8 13.9063 16.912C12.5897 17.164 11.3829 17.094 10.3543 16.898C9.57257 16.744 8.90057 16.52 8.33829 16.296C8.02286 16.17 7.68 16.016 7.33714 15.82C7.296 15.792 7.25486 15.778 7.21371 15.75C7.18629 15.736 7.17257 15.722 7.15886 15.708C6.912 15.568 6.77486 15.47 6.77486 15.47C6.77486 15.47 7.43314 16.59 9.17486 17.122C8.76343 17.654 8.256 18.284 8.256 18.284C5.22514 18.186 4.07314 16.156 4.07314 16.156C4.07314 11.648 6.048 7.994 6.048 7.994C8.02286 6.482 9.90171 6.524 9.90171 6.524L10.0389 6.692C7.57028 7.42 6.432 8.526 6.432 8.526C6.432 8.526 6.73371 8.358 7.24114 8.12C8.70857 7.462 9.87429 7.28 10.3543 7.238C10.4366 7.224 10.5051 7.21 10.5874 7.21C11.424 7.098 12.3703 7.07 13.3577 7.182C14.6606 7.336 16.0594 7.728 17.4857 8.526C17.4857 8.526 16.4023 7.476 14.0709 6.748L14.2629 6.524C14.2629 6.524 16.1417 6.482 18.1166 7.994C18.1166 7.994 20.0914 11.648 20.0914 16.156C20.0914 16.156 18.9257 18.186 15.8949 18.284Z" fill="white"/>
</svg>
