<svg width="32" height="32" viewBox="0 0 32 32" fill="none" xmlns="http://www.w3.org/2000/svg">
<mask id="mask0_170_181" style="mask-type:alpha" maskUnits="userSpaceOnUse" x="0" y="0" width="32" height="32">
<rect width="32" height="32" fill="#C4C4C4"/>
</mask>
<g mask="url(#mask0_170_181)">
<path d="M1.90226 14.3233L20.3667 6.60578C22.1894 5.80193 28.3708 3.22951 28.3708 3.22951C28.3708 3.22951 31.2238 2.10417 30.9859 4.83722C30.9066 5.96256 30.273 9.90186 29.6387 14.1622L27.6577 26.7832C27.6577 26.7832 27.4991 28.6322 26.1496 28.9537C24.8002 29.2752 22.5836 27.8284 22.1876 27.5066C21.8707 27.2656 16.244 23.648 14.1835 21.8794C13.6287 21.3973 12.9949 20.4324 14.2628 19.307C17.1157 16.6542 20.5235 13.3581 22.5836 11.268C23.5345 10.3033 24.4855 8.05239 20.5232 10.7859L9.34951 18.423C9.34951 18.423 8.08138 19.2268 5.70414 18.5034C3.32691 17.78 0.553237 16.8153 0.553237 16.8153C0.553237 16.8153 -1.34873 15.6095 1.90043 14.3235L1.90226 14.3233Z" fill="white"/>
</g>
</svg>
