<svg width="31" height="25" viewBox="0 0 31 25" fill="none" xmlns="http://www.w3.org/2000/svg">
<path d="M9.4591 24.6666C20.8097 24.6666 27.017 15.1776 27.017 6.94909C27.017 6.6796 27.0115 6.41133 26.9995 6.14419C28.2072 5.26237 29.2495 4.17047 30.0777 2.91968C28.972 3.41568 27.7821 3.74954 26.534 3.90007C27.808 3.12908 28.7861 1.90965 29.2475 0.455872C28.0361 1.18106 26.7109 1.69224 25.329 1.9674C24.2029 0.757036 22.5998 0 20.8246 0C17.4168 0 14.6533 2.7887 14.6533 6.22617C14.6533 6.71484 14.7075 7.19017 14.8134 7.64604C9.68458 7.38561 5.13675 4.90775 2.0931 1.13999C1.54491 2.09021 1.25656 3.17026 1.25749 4.26978C1.25749 6.43018 2.34694 8.33738 4.00361 9.45313C3.02368 9.42296 2.06524 9.15587 1.20884 8.6743C1.20794 8.70047 1.20794 8.72593 1.20794 8.75384C1.20794 11.7696 3.33504 14.2874 6.15867 14.858C5.62835 15.0038 5.08112 15.0775 4.53147 15.0772C4.14222 15.0769 3.75388 15.0393 3.37168 14.9648C4.15732 17.439 6.43543 19.2395 9.13632 19.2898C7.02425 20.9603 4.36363 21.9553 1.47197 21.9553C0.974483 21.9553 0.483053 21.9268 0 21.8691C2.73108 23.6356 5.97397 24.6663 9.4594 24.6663" fill="white"/>
</svg>
